<svg xmlns="http://www.w3.org/2000/svg" xmlns:xlink="http://www.w3.org/1999/xlink" width="500" zoomAndPan="magnify" viewBox="0 0 375 374.999991" height="500" preserveAspectRatio="xMidYMid meet" version="1.0"><defs><clipPath id="5a4ff806b1"><path d="M 37.5 0 L 337 0 L 337 375 L 37.5 375 Z M 37.5 0 " clip-rule="nonzero"/></clipPath></defs><g clip-path="url(#5a4ff806b1)"><path fill="#ffefbf" d="M 301.269531 -0.636719 L 72.457031 -0.636719 C 53.179688 -0.636719 37.5 15.042969 37.5 34.320312 L 37.5 339.40625 C 37.5 358.6875 53.179688 374.363281 72.457031 374.363281 L 301.269531 374.363281 C 320.550781 374.363281 336.230469 358.6875 336.230469 339.40625 L 336.230469 34.320312 C 336.230469 15.042969 320.550781 -0.636719 301.269531 -0.636719 Z M 317.160156 339.40625 C 317.160156 348.171875 310.035156 355.296875 301.269531 355.296875 L 72.457031 355.296875 C 63.695312 355.296875 56.566406 348.171875 56.566406 339.40625 L 56.566406 34.320312 C 56.566406 25.558594 63.695312 18.433594 72.457031 18.433594 L 301.269531 18.433594 C 310.035156 18.433594 317.160156 25.558594 317.160156 34.320312 Z M 317.160156 339.40625 " fill-opacity="1" fill-rule="nonzero"/></g><path fill="#ffefbf" d="M 146.921875 132.839844 C 156.300781 132.839844 165.21875 128.890625 172.035156 121.742188 C 175.667969 117.917969 175.523438 111.882812 171.707031 108.257812 C 167.910156 104.621094 161.855469 104.785156 158.230469 108.582031 C 155.046875 111.933594 151.03125 113.769531 146.921875 113.769531 C 137.160156 113.769531 129.21875 103.789062 129.21875 91.523438 C 129.21875 79.261719 137.160156 69.28125 146.921875 69.28125 C 152.171875 69.28125 155.960938 72.097656 158.21875 74.457031 C 161.855469 78.265625 167.890625 78.417969 171.699219 74.777344 C 175.503906 71.140625 175.648438 65.109375 172.011719 61.296875 C 165.191406 54.148438 156.28125 50.210938 146.921875 50.210938 C 126.652344 50.210938 110.152344 68.746094 110.152344 91.523438 C 110.152344 114.304688 126.652344 132.839844 146.921875 132.839844 Z M 146.921875 132.839844 " fill-opacity="1" fill-rule="nonzero"/><path fill="#ffefbf" d="M 216.148438 126.84375 C 217.59375 130.46875 221.101562 132.839844 225 132.839844 C 228.898438 132.839844 232.40625 130.46875 233.851562 126.84375 L 259.273438 63.285156 C 261.230469 58.390625 258.851562 52.84375 253.960938 50.894531 C 249.089844 48.996094 243.535156 51.316406 241.574219 56.207031 L 225 97.632812 L 208.425781 56.207031 C 206.476562 51.304688 200.921875 48.984375 196.039062 50.894531 C 191.148438 52.84375 188.769531 58.394531 190.726562 63.285156 Z M 216.148438 126.84375 " fill-opacity="1" fill-rule="nonzero"/><path fill="#ffefbf" d="M 275.847656 177.332031 L 97.882812 177.332031 C 92.617188 177.332031 88.347656 181.601562 88.347656 186.863281 C 88.347656 192.128906 92.617188 196.398438 97.882812 196.398438 L 275.847656 196.398438 C 281.109375 196.398438 285.382812 192.128906 285.382812 186.863281 C 285.382812 181.601562 281.109375 177.332031 275.847656 177.332031 Z M 275.847656 177.332031 " fill-opacity="1" fill-rule="nonzero"/><path fill="#ffefbf" d="M 275.847656 240.890625 L 97.882812 240.890625 C 92.617188 240.890625 88.347656 245.160156 88.347656 250.421875 C 88.347656 255.6875 92.617188 259.957031 97.882812 259.957031 L 275.847656 259.957031 C 281.109375 259.957031 285.382812 255.6875 285.382812 250.421875 C 285.382812 245.160156 281.109375 240.890625 275.847656 240.890625 Z M 275.847656 240.890625 " fill-opacity="1" fill-rule="nonzero"/><path fill="#ffefbf" d="M 186.863281 304.449219 L 97.882812 304.449219 C 92.617188 304.449219 88.347656 308.71875 88.347656 313.984375 C 88.347656 319.246094 92.617188 323.515625 97.882812 323.515625 L 186.863281 323.515625 C 192.128906 323.515625 196.398438 319.246094 196.398438 313.984375 C 196.398438 308.71875 192.128906 304.449219 186.863281 304.449219 Z M 186.863281 304.449219 " fill-opacity="1" fill-rule="nonzero"/></svg>