<svg xmlns="http://www.w3.org/2000/svg" xmlns:xlink="http://www.w3.org/1999/xlink" width="500" zoomAndPan="magnify" viewBox="0 0 375 374.999991" height="500" preserveAspectRatio="xMidYMid meet" version="1.0"><path fill="#ffefbf" d="M 195.886719 134.613281 C 192.457031 139.226562 188.367188 141.570312 183.601562 141.570312 C 180.359375 141.570312 177.75 139.863281 175.78125 136.46875 C 173.792969 133.074219 172.78125 128.871094 172.78125 123.789062 C 172.78125 117.542969 174.1875 112.515625 176.960938 108.710938 C 179.757812 104.882812 183.207031 102.933594 187.335938 102.933594 C 190.917969 102.933594 194.085938 104.359375 196.882812 107.246094 C 199.675781 110.117188 201.082031 113.941406 201.082031 118.726562 C 201.046875 124.707031 199.320312 129.980469 195.886719 134.613281 Z M 240.582031 64.859375 C 227.023438 52.367188 210.160156 46.121094 190.035156 46.121094 C 168.859375 46.121094 150.835938 53.210938 135.945312 67.429688 C 121.050781 81.664062 113.585938 99.332031 113.585938 120.488281 C 113.585938 140.78125 120.695312 158.207031 134.855469 172.816406 C 149.074219 187.449219 168.167969 194.742188 192.210938 194.742188 C 206.710938 194.742188 220.925781 191.78125 234.882812 185.796875 C 239.421875 183.863281 241.652344 178.652344 239.796875 174.074219 C 237.882812 169.347656 232.480469 167.152344 227.792969 169.160156 C 215.65625 174.375 203.765625 176.980469 192.191406 176.980469 C 173.753906 176.980469 159.480469 171.375 149.335938 160.121094 C 139.246094 148.902344 134.179688 135.71875 134.179688 120.582031 C 134.179688 104.152344 139.621094 90.441406 150.441406 79.433594 C 161.226562 68.460938 174.542969 62.945312 190.316406 62.945312 C 204.835938 62.945312 217.121094 67.464844 227.117188 76.488281 C 237.132812 85.527344 242.121094 96.894531 242.121094 110.605469 C 242.121094 119.980469 239.8125 127.804688 235.238281 134.011719 C 230.660156 140.257812 225.898438 143.351562 220.964844 143.351562 C 218.300781 143.351562 216.949219 141.925781 216.949219 139.058594 C 216.949219 136.710938 217.136719 133.992188 217.476562 130.824219 L 222.578125 87.066406 C 222.859375 84.589844 220.945312 82.433594 218.46875 82.433594 L 207.160156 82.433594 C 205.152344 82.433594 203.445312 83.875 203.089844 85.828125 L 202.472656 89.242188 C 197.519531 85.191406 192.097656 83.164062 186.210938 83.164062 C 176.867188 83.164062 168.859375 86.898438 162.21875 94.324219 C 155.5625 101.75 152.261719 111.335938 152.261719 123.039062 C 152.261719 134.480469 155.207031 143.707031 161.113281 150.722656 C 167.023438 157.757812 174.113281 161.246094 182.421875 161.246094 C 189.847656 161.246094 196.1875 158.113281 201.476562 151.90625 C 205.433594 157.886719 211.285156 160.851562 219.015625 160.851562 C 230.378906 160.851562 240.207031 155.898438 248.5 145.996094 C 256.769531 136.113281 260.933594 124.164062 260.933594 110.191406 C 260.933594 92.484375 254.164062 77.351562 240.582031 64.859375 " fill-opacity="1" fill-rule="nonzero"/><path fill="#ffefbf" d="M 132.660156 254.988281 L 22.714844 340.253906 L 22.488281 178.839844 Z M 329.730469 351.582031 L 44.5625 351.976562 L 187.410156 241.164062 Z M 180.46875 217.90625 L 151.417969 240.433594 L 79.976562 191.03125 L 80.125 22.957031 L 294.695312 22.957031 L 294.542969 190.617188 L 223.160156 240.246094 L 194.351562 217.90625 C 194.292969 217.851562 194.21875 217.8125 194.199219 217.792969 C 190.109375 214.738281 184.484375 214.792969 180.46875 217.90625 Z M 352.03125 340.214844 L 241.914062 254.800781 L 351.804688 178.386719 Z M 317.183594 174.882812 L 317.183594 139.582031 L 342.578125 157.230469 Z M 31.058594 157.230469 L 57.335938 139.058594 L 57.335938 175.386719 Z M 374.40625 157.0625 C 374.40625 156.367188 374.277344 155.335938 373.976562 154.585938 C 373.246094 152.074219 371.6875 149.898438 369.550781 148.417969 L 317.183594 112.011719 L 317.332031 11.628906 C 317.332031 5.402344 312.25 0.320312 306.023438 0.320312 L 68.796875 0.320312 C 62.570312 0.320312 57.488281 5.402344 57.488281 11.628906 L 57.335938 111.542969 L 4.707031 147.910156 C 1.746094 149.953125 -0.0742188 153.347656 -0.148438 156.96875 C -0.167969 157.0625 -0.167969 157.15625 -0.167969 157.25 L 0.113281 363.339844 C 0.113281 366.378906 1.292969 369.210938 3.433594 371.351562 C 5.570312 373.488281 8.253906 374.199219 11.292969 374.199219 L 363.398438 374.164062 C 369.625 374.164062 374.707031 369.082031 374.6875 362.835938 L 374.40625 157.0625 " fill-opacity="1" fill-rule="nonzero"/></svg>